# xmcd CD database file
#
# Track frame offsets:
#	150
#	19488
#	32976
#	55516
#	73843
#	93529
#	108739
#	127284
#	145222
#	166290
#	180846
#	199631
#	215687
#	230348
#	246391
#	261971
#	276423
#	290960
#
# Disc length: 4070 seconds
#
# Revision: 0
# Processed by: cddbd v1.5.2PL0 Copyright (c) Steve Scherf et al.
# Submitted via: CDex 1.70beta2
#
DISCID=260fe412
DTITLE=Various Artist - The Heart Of Country
DYEAR=2004
DGENRE=Country
TTITLE0=Trisha Yearwood - Walkaway Joe
TTITLE1=Vince Gill - What The Cowgirls Do
TTITLE2=Iris Dement - Our Town
TTITLE3=Mary Chapin Carpenter - He Thinks He'll Keep Her
TTITLE4=The Mavericks - All You Ever Do Is Bring Me Down
TTITLE5=Clint Beattie - My Love Will Follow You
TTITLE6=Patty Loveless - You Don't Even Know Who I Am
TTITLE7=Joe Diffie - Bigger Than The Beatles
TTITLE8=The Highwaymen - The Road Goes On Forever
TTITLE9=Dead Ringer Band - Home Fires
TTITLE10=Tanya - Two Sparrows In A Hurricane
TTITLE11=Wayne Law - Small Town Dreamer
TTITLE12=Keith Urban - Arms Of Mary
TTITLE13=Cam Fletcher - Eight Seconds
TTITLE14=Tracy Byrd - Walking To Jerusalem
TTITLE15=Faith Hill - Let's Go To Vegas
TTITLE16=Mark Chesnutt - It Wouldn't Hurt To Have Wings
TTITLE17=Bellamy Bros - Get Into Reggae Cowboy
EXTD=YEAR: 2004
EXTT0=
EXTT1=
EXTT2=
EXTT3=
EXTT4=
EXTT5=
EXTT6=
EXTT7=
EXTT8=
EXTT9=
EXTT10=
EXTT11=
EXTT12=
EXTT13=
EXTT14=
EXTT15=
EXTT16=
EXTT17=
PLAYORDER=
